<?xml version="1.0" encoding="utf-8"?>
<!-- Generator: Adobe Illustrator 24.1.3, SVG Export Plug-In . SVG Version: 6.00 Build 0)  -->
<svg version="1.1" id="Layer_1" xmlns="http://www.w3.org/2000/svg" xmlns:xlink="http://www.w3.org/1999/xlink" x="0px" y="0px"
	 viewBox="0 0 512 512" style="enable-background:new 0 0 512 512;" xml:space="preserve">
<style type="text/css">
	.st0{fill:#FFFFFF;}
	.st1{fill:#5D5B59;}
	.st2{fill:#5E5E5E;}
	.st3{font-family:'Optima-BoldItalic';}
	.st4{font-size:21.0042px;}
	.st5{fill:none;}
</style>
<g id="XMLID_25_">
	<path id="XMLID_26_" class="st0" d="M165.44,544.44c-1.34,0-2.65-0.22-3.93-0.66c-1.28-0.44-2.38-1.08-3.3-1.92l1.02-1.52
		c0.97,0.79,1.95,1.39,2.96,1.78s2.08,0.59,3.22,0.59c1.39,0,2.49-0.28,3.32-0.84s1.24-1.36,1.24-2.39c0-0.48-0.11-0.89-0.33-1.21
		c-0.22-0.32-0.55-0.6-0.97-0.84c-0.43-0.24-0.97-0.46-1.62-0.64c-0.65-0.19-1.4-0.38-2.26-0.58c-0.99-0.24-1.85-0.48-2.58-0.73
		s-1.33-0.52-1.8-0.83c-0.47-0.31-0.83-0.69-1.06-1.14c-0.23-0.45-0.35-1.02-0.35-1.7c0-0.86,0.17-1.62,0.51-2.28
		s0.8-1.21,1.39-1.63s1.27-0.75,2.05-0.97c0.78-0.22,1.61-0.33,2.49-0.33c1.32,0,2.52,0.21,3.6,0.64c1.08,0.43,1.95,1,2.61,1.7
		l-1.09,1.32c-0.64-0.66-1.42-1.16-2.33-1.49c-0.91-0.33-1.87-0.5-2.86-0.5c-0.59,0-1.15,0.06-1.65,0.18
		c-0.51,0.12-0.95,0.31-1.34,0.58c-0.39,0.26-0.69,0.6-0.91,1.01c-0.22,0.41-0.33,0.89-0.33,1.44c0,0.46,0.08,0.84,0.23,1.12
		c0.15,0.29,0.41,0.53,0.76,0.74c0.35,0.21,0.8,0.4,1.34,0.56s1.19,0.34,1.97,0.51c1.1,0.26,2.07,0.53,2.91,0.79
		c0.84,0.26,1.54,0.57,2.1,0.92c0.56,0.35,0.98,0.78,1.27,1.29c0.29,0.51,0.43,1.12,0.43,1.85c0,1.59-0.61,2.84-1.82,3.77
		C169.11,543.98,167.49,544.44,165.44,544.44z"/>
	<path id="XMLID_28_" class="st0" d="M183.24,544.44c-1.25,0-2.41-0.24-3.45-0.71c-1.05-0.47-1.95-1.12-2.73-1.95
		c-0.77-0.83-1.37-1.78-1.8-2.86c-0.43-1.08-0.64-2.23-0.64-3.47c0-1.21,0.21-2.35,0.64-3.42c0.43-1.07,1.02-2,1.78-2.81
		c0.76-0.8,1.67-1.44,2.72-1.92c1.06-0.47,2.2-0.71,3.44-0.71c1.25,0,2.41,0.24,3.45,0.71c1.05,0.47,1.94,1.12,2.69,1.93
		s1.33,1.75,1.75,2.81c0.42,1.06,0.63,2.18,0.63,3.37c0,0.18,0,0.35,0,0.53c0,0.18-0.01,0.3-0.03,0.36h-14.73
		c0.07,0.92,0.28,1.78,0.64,2.56c0.36,0.78,0.83,1.46,1.4,2.03c0.57,0.57,1.23,1.02,1.97,1.34c0.74,0.32,1.52,0.48,2.36,0.48
		c0.55,0,1.1-0.08,1.65-0.23s1.06-0.36,1.52-0.63c0.46-0.26,0.88-0.59,1.25-0.97c0.37-0.38,0.66-0.81,0.86-1.27l1.95,0.53
		c-0.26,0.64-0.64,1.22-1.12,1.73c-0.48,0.52-1.05,0.97-1.68,1.35c-0.64,0.39-1.34,0.68-2.11,0.89
		C184.88,544.34,184.08,544.44,183.24,544.44z M189.58,534.6c-0.07-0.92-0.28-1.77-0.64-2.53s-0.83-1.41-1.39-1.96
		c-0.56-0.55-1.21-0.98-1.95-1.29c-0.74-0.31-1.52-0.46-2.36-0.46s-1.63,0.15-2.38,0.46c-0.75,0.31-1.4,0.74-1.96,1.29
		c-0.56,0.55-1.01,1.21-1.35,1.98c-0.34,0.77-0.54,1.61-0.61,2.51H189.58z"/>
	<path id="XMLID_31_" class="st0" d="M202.63,544.44c-1.25,0-2.41-0.24-3.45-0.71c-1.05-0.47-1.95-1.12-2.73-1.95
		c-0.77-0.83-1.37-1.78-1.8-2.86c-0.43-1.08-0.64-2.23-0.64-3.47c0-1.21,0.21-2.35,0.64-3.42c0.43-1.07,1.02-2,1.78-2.81
		c0.76-0.8,1.67-1.44,2.72-1.92c1.06-0.47,2.2-0.71,3.44-0.71c1.25,0,2.41,0.24,3.45,0.71c1.05,0.47,1.94,1.12,2.69,1.93
		s1.33,1.75,1.75,2.81c0.42,1.06,0.63,2.18,0.63,3.37c0,0.18,0,0.35,0,0.53c0,0.18-0.01,0.3-0.03,0.36h-14.73
		c0.07,0.92,0.28,1.78,0.64,2.56c0.36,0.78,0.83,1.46,1.4,2.03c0.57,0.57,1.23,1.02,1.97,1.34c0.74,0.32,1.52,0.48,2.36,0.48
		c0.55,0,1.1-0.08,1.65-0.23s1.06-0.36,1.52-0.63c0.46-0.26,0.88-0.59,1.25-0.97c0.37-0.38,0.66-0.81,0.86-1.27l1.95,0.53
		c-0.26,0.64-0.64,1.22-1.12,1.73c-0.48,0.52-1.05,0.97-1.68,1.35c-0.64,0.39-1.34,0.68-2.11,0.89
		C204.27,544.34,203.46,544.44,202.63,544.44z M208.97,534.6c-0.07-0.92-0.28-1.77-0.64-2.53s-0.83-1.41-1.39-1.96
		c-0.56-0.55-1.21-0.98-1.95-1.29c-0.74-0.31-1.52-0.46-2.36-0.46s-1.63,0.15-2.38,0.46c-0.75,0.31-1.4,0.74-1.96,1.29
		c-0.56,0.55-1.01,1.21-1.35,1.98c-0.34,0.77-0.54,1.61-0.61,2.51H208.97z"/>
	<path id="XMLID_34_" class="st0" d="M226.87,544.11l-6.34-8.82l-3.7,3.43v5.38h-2.25V520h2.25v16.38l9.68-9.45h2.54l-7.04,7.04
		l7.3,10.14H226.87z"/>
	<path id="XMLID_36_" class="st0" d="M232.19,520h2.25v20.21c0,0.64,0.18,1.14,0.53,1.5c0.35,0.36,0.85,0.54,1.49,0.54
		c0.24,0,0.53-0.03,0.86-0.1c0.33-0.07,0.64-0.15,0.92-0.26l0.4,1.82c-0.42,0.18-0.93,0.32-1.54,0.43
		c-0.61,0.11-1.13,0.17-1.57,0.17c-1.04,0-1.85-0.29-2.44-0.88s-0.89-1.4-0.89-2.46V520z"/>
	<path id="XMLID_38_" class="st0" d="M248.4,544.44c-1.25,0-2.4-0.24-3.44-0.71s-1.93-1.12-2.69-1.93s-1.35-1.76-1.77-2.84
		c-0.42-1.08-0.63-2.21-0.63-3.4c0-1.21,0.21-2.36,0.64-3.43c0.43-1.08,1.02-2.03,1.78-2.84c0.76-0.81,1.66-1.46,2.69-1.95
		s2.17-0.73,3.4-0.73c1.23,0,2.37,0.24,3.42,0.73s1.95,1.13,2.71,1.95c0.76,0.82,1.35,1.76,1.78,2.84c0.43,1.08,0.64,2.22,0.64,3.43
		c0,1.19-0.21,2.32-0.63,3.4c-0.42,1.08-1.01,2.03-1.77,2.84s-1.66,1.46-2.71,1.93S249.66,544.44,248.4,544.44z M242.16,535.59
		c0,0.97,0.17,1.87,0.5,2.69c0.33,0.83,0.78,1.55,1.34,2.18c0.56,0.63,1.22,1.12,1.98,1.47s1.57,0.53,2.43,0.53
		c0.86,0,1.67-0.18,2.43-0.54c0.76-0.36,1.42-0.86,2-1.49c0.57-0.63,1.02-1.36,1.35-2.2c0.33-0.84,0.5-1.74,0.5-2.71
		c0-0.95-0.17-1.84-0.5-2.69c-0.33-0.85-0.78-1.58-1.35-2.21c-0.57-0.63-1.24-1.12-2-1.49c-0.76-0.36-1.57-0.54-2.43-0.54
		c-0.86,0-1.66,0.18-2.41,0.54c-0.75,0.36-1.41,0.86-1.98,1.5c-0.57,0.64-1.02,1.38-1.35,2.23S242.16,534.62,242.16,535.59z"/>
	<path id="XMLID_41_" class="st0" d="M267.63,544.34c-1.19,0-2.27-0.25-3.25-0.74c-0.98-0.5-1.83-1.15-2.54-1.97
		c-0.72-0.81-1.27-1.75-1.67-2.81c-0.4-1.06-0.59-2.15-0.59-3.27c0-1.19,0.19-2.33,0.58-3.42c0.38-1.09,0.93-2.04,1.63-2.86
		c0.7-0.81,1.55-1.46,2.53-1.95s2.06-0.73,3.25-0.73c1.48,0,2.75,0.37,3.83,1.11c1.08,0.74,2,1.67,2.77,2.79v-3.6h2.01v17.27
		c0,1.19-0.23,2.24-0.68,3.15c-0.45,0.91-1.06,1.68-1.82,2.29s-1.65,1.08-2.67,1.39c-1.02,0.31-2.11,0.46-3.25,0.46
		c-1.98,0-3.58-0.35-4.79-1.06c-1.21-0.71-2.19-1.65-2.94-2.84l1.39-1.09c0.68,1.1,1.58,1.91,2.71,2.43
		c1.12,0.52,2.33,0.78,3.63,0.78c0.84,0,1.63-0.12,2.38-0.35c0.75-0.23,1.4-0.57,1.97-1.02s1.01-1.02,1.34-1.72
		c0.33-0.69,0.5-1.5,0.5-2.43v-3.4c-0.66,1.1-1.56,1.97-2.71,2.61C270.08,544.02,268.88,544.34,267.63,544.34z M268.25,542.46
		c0.66,0,1.31-0.12,1.95-0.36s1.22-0.57,1.73-0.97c0.52-0.41,0.95-0.86,1.3-1.37c0.35-0.51,0.58-1.02,0.69-1.55v-5.32
		c-0.24-0.62-0.57-1.19-0.99-1.72s-0.89-0.98-1.42-1.35c-0.53-0.38-1.1-0.67-1.7-0.89c-0.61-0.22-1.22-0.33-1.83-0.33
		c-0.97,0-1.83,0.2-2.59,0.61s-1.4,0.94-1.93,1.6c-0.53,0.66-0.93,1.41-1.21,2.25s-0.41,1.68-0.41,2.54c0,0.92,0.17,1.81,0.5,2.64
		s0.79,1.57,1.37,2.2s1.26,1.12,2.03,1.49S267.35,542.46,268.25,542.46z"/>
	<path id="XMLID_44_" class="st0" d="M288.47,544.44c-1.25,0-2.4-0.24-3.44-0.71s-1.93-1.12-2.69-1.93s-1.35-1.76-1.77-2.84
		c-0.42-1.08-0.63-2.21-0.63-3.4c0-1.21,0.21-2.36,0.64-3.43c0.43-1.08,1.02-2.03,1.78-2.84c0.76-0.81,1.66-1.46,2.69-1.95
		s2.17-0.73,3.4-0.73c1.23,0,2.37,0.24,3.42,0.73s1.95,1.13,2.71,1.95c0.76,0.82,1.35,1.76,1.78,2.84c0.43,1.08,0.64,2.22,0.64,3.43
		c0,1.19-0.21,2.32-0.63,3.4c-0.42,1.08-1.01,2.03-1.77,2.84s-1.66,1.46-2.71,1.93S289.72,544.44,288.47,544.44z M282.22,535.59
		c0,0.97,0.17,1.87,0.5,2.69c0.33,0.83,0.78,1.55,1.34,2.18c0.56,0.63,1.22,1.12,1.98,1.47s1.57,0.53,2.43,0.53
		c0.86,0,1.67-0.18,2.43-0.54c0.76-0.36,1.42-0.86,2-1.49c0.57-0.63,1.02-1.36,1.35-2.2c0.33-0.84,0.5-1.74,0.5-2.71
		c0-0.95-0.17-1.84-0.5-2.69c-0.33-0.85-0.78-1.58-1.35-2.21c-0.57-0.63-1.24-1.12-2-1.49c-0.76-0.36-1.57-0.54-2.43-0.54
		c-0.86,0-1.66,0.18-2.41,0.54c-0.75,0.36-1.41,0.86-1.98,1.5c-0.57,0.64-1.02,1.38-1.35,2.23S282.22,534.62,282.22,535.59z"/>
	<path id="XMLID_47_" class="st0" d="M300.45,544.11v-3.24h1.95v3.24H300.45z"/>
	<path id="XMLID_49_" class="st0" d="M321.49,544.11h-2.25v-9.61c0-2.05-0.3-3.53-0.91-4.46s-1.54-1.39-2.79-1.39
		c-0.66,0-1.32,0.12-1.98,0.36s-1.27,0.58-1.83,1.02c-0.56,0.44-1.06,0.96-1.5,1.57s-0.76,1.26-0.96,1.96v10.54h-2.25V526.9h2.05
		v3.9c0.71-1.25,1.71-2.27,3.02-3.04c1.31-0.77,2.74-1.16,4.28-1.16c0.95,0,1.75,0.18,2.41,0.53c0.66,0.35,1.19,0.85,1.58,1.49
		s0.68,1.42,0.86,2.34c0.18,0.92,0.26,1.95,0.26,3.07V544.11z"/>
	<path id="XMLID_51_" class="st0" d="M333.71,544.44c-1.25,0-2.41-0.24-3.45-0.71s-1.95-1.12-2.72-1.95
		c-0.77-0.83-1.37-1.78-1.8-2.86c-0.43-1.08-0.64-2.23-0.64-3.47c0-1.21,0.21-2.35,0.64-3.42c0.43-1.07,1.02-2,1.78-2.81
		s1.67-1.44,2.72-1.92c1.06-0.47,2.2-0.71,3.43-0.71c1.26,0,2.41,0.24,3.45,0.71c1.04,0.47,1.94,1.12,2.69,1.93
		c0.75,0.81,1.33,1.75,1.75,2.81c0.42,1.06,0.63,2.18,0.63,3.37c0,0.18,0,0.35,0,0.53c0,0.18-0.01,0.3-0.03,0.36h-14.73
		c0.07,0.92,0.28,1.78,0.64,2.56c0.36,0.78,0.83,1.46,1.4,2.03c0.57,0.57,1.23,1.02,1.97,1.34c0.74,0.32,1.52,0.48,2.36,0.48
		c0.55,0,1.1-0.08,1.65-0.23c0.55-0.15,1.06-0.36,1.52-0.63c0.46-0.26,0.88-0.59,1.26-0.97c0.37-0.38,0.66-0.81,0.86-1.27l1.95,0.53
		c-0.26,0.64-0.64,1.22-1.12,1.73c-0.49,0.52-1.05,0.97-1.68,1.35c-0.64,0.39-1.34,0.68-2.11,0.89S334.55,544.44,333.71,544.44z
		 M340.05,534.6c-0.07-0.92-0.28-1.77-0.64-2.53s-0.83-1.41-1.39-1.96c-0.56-0.55-1.21-0.98-1.95-1.29
		c-0.74-0.31-1.52-0.46-2.36-0.46s-1.63,0.15-2.38,0.46c-0.75,0.31-1.4,0.74-1.96,1.29c-0.56,0.55-1.01,1.21-1.35,1.98
		c-0.34,0.77-0.54,1.61-0.61,2.51H340.05z"/>
	<path id="XMLID_54_" class="st0" d="M353.79,543.28c-0.13,0.07-0.33,0.15-0.58,0.26c-0.25,0.11-0.54,0.22-0.88,0.33
		c-0.33,0.11-0.71,0.21-1.12,0.3c-0.42,0.09-0.86,0.13-1.32,0.13c-0.48,0-0.95-0.07-1.39-0.2s-0.83-0.33-1.16-0.61
		c-0.33-0.27-0.59-0.62-0.79-1.04c-0.2-0.42-0.3-0.9-0.3-1.45v-12.32h-2.38v-1.78h2.38v-5.81h2.25v5.81h3.96v1.78h-3.96v11.69
		c0.04,0.64,0.27,1.11,0.68,1.4c0.41,0.3,0.88,0.45,1.4,0.45c0.64,0,1.2-0.1,1.68-0.31s0.79-0.36,0.92-0.45L353.79,543.28z"/>
</g>
<g id="mdx">
</g>
<g id="XMLID_2_">
	<polygon id="XMLID_101_" class="st1" points="41.23,230.79 41.23,230.8 41.23,230.78 	"/>
	<polygon id="XMLID_100_" class="st1" points="41.23,230.83 41.23,230.85 41.23,230.83 	"/>
	<path id="XMLID_22_" class="st1" d="M487.06,207.04c-1.65-2.71-4.54-2.89-5.85-2.95H293.8c-5.31,0-9.61,1.61-12.78,4.78
		c-2.27,2.28-3.84,5.23-4.65,8.79c-0.05,0.13-0.27,0.84-1.85,0.84h-37.04c-1.6,0-1.82-0.74-1.85-0.83c-0.81-3.57-2.36-6.52-4.64-8.8
		c-3.17-3.16-7.47-4.78-12.76-4.78H30.77c-1.19,0.03-4.19,0.25-5.82,2.95c-0.77,1.31-1.36,3.53,0.33,6.64
		c0,0.02,3.42,5.72,3.42,5.72c1.41,2.28,3,3.13,6.37,3.35c0.06,0.01,1.62,0.16,2.72,2.07l3.49,6.15c0.74,1.41,2.48,4.71,8.39,5.5
		c0.09,0.02,1.83,0.2,2.8,2.01c0,0.03,4.31,7.61,4.31,7.61c1.26,2.43,3.02,3.34,6.22,4.33c0.01,0,78.39,23.02,78.39,23.02
		c2.68,0.78,3.76,3.79,3.76,3.79c1.88,4.84,4.31,8.82,16.54,12.51c0.01,0,64.13,17.5,64.13,17.5c0.8,0.26,8.16,2.5,13.68-2.85
		l15.04-14.35c-0.01,0,0.62-0.63,1.47-0.63c0.84,0,1.47,0.63,1.47,0.63c0.04,0.05,15.05,14.36,15.05,14.36
		c5.53,5.34,12.89,3.11,13.69,2.84c-0.03,0,64.08-17.49,64.11-17.5c12.23-3.69,14.76-7.74,16.54-12.51c0.08-0.2,1.12-3.02,3.75-3.78
		c0,0,11.84-3.49,78.36-23.02c3.23-1,4.99-1.91,6.25-4.34l4.29-7.53c0.95-1.85,2.66-2.07,2.75-2.07c5.98-0.81,7.72-4.11,8.48-5.52
		l3.48-6.15c1.09-1.91,2.64-2.07,2.71-2.07c3.36-0.21,4.96-1.07,6.37-3.35c-0.03,0.01,3.42-5.72,3.42-5.72
		c0.73-1.34,1.08-2.62,1.08-3.83C487.81,208.84,487.56,207.89,487.06,207.04 M279.78,218.43c0.66-2.91,1.92-5.29,3.72-7.09
		c2.49-2.5,5.95-3.76,10.31-3.76h86.1c-2.97,2.22-4.52,5.01-4.61,5.22c-1.01,1.85-2.24,4.05-3.73,6.49h-92.09
		C279.67,218.95,279.78,218.43,279.78,218.43 M163.19,248.1c-0.02-0.02-0.05-0.04-0.06-0.05v-26.06h185.71l0,26.07
		c0,0.01,0,0.02,0,0.02L163.19,248.1z M160.42,225.54l-15.22,1.01c-1.1-1.58-2.09-3.11-3.04-4.57h18.25V225.54z M160.42,228.37v3.71
		l-10.19,1.37c-1.1-1.42-2.15-2.83-3.13-4.19L160.42,228.37z M160.42,234.8v4.3l-4.73,0.98c-1.22-1.4-2.38-2.79-3.49-4.16
		L160.42,234.8z M160.42,241.89v3.4c-0.9-0.95-1.79-1.91-2.66-2.87C158.84,242.21,159.74,242.02,160.42,241.89 M194.74,250.8h16.78
		l-23.43,16.77c-4.08-2.45-8.03-5.16-11.87-8.09C185.02,255.35,193.17,251.53,194.74,250.8 M173.84,257.59
		c-0.22-0.18-5.56-4.67-7.83-6.79h22.33L173.84,257.59z M216.19,250.8h9.01l-23.09,24.08c-3.89-1.74-7.7-3.67-11.45-5.81
		C201.73,261.16,213.29,252.87,216.19,250.8 M228.97,250.8h7.63l-17.78,30.11c-4.81-1.35-9.48-2.99-14.06-4.88
		C214.46,265.91,226.14,253.74,228.97,250.8 M239.76,250.8h6.47l-9.38,33.83c-5.24-0.7-10.35-1.69-15.33-2.98
		C228.35,270.11,237.47,254.67,239.76,250.8 M272.25,250.8l18.23,30.85c-4.99,1.29-10.09,2.28-15.31,2.98l-9.39-33.83H272.25z
		 M275.41,250.8h7.65l24.18,25.23c-4.57,1.91-9.26,3.52-14.05,4.88L275.41,250.8z M286.82,250.8h9l25.54,18.28
		c-3.72,2.14-7.54,4.08-11.44,5.82C301.51,266.11,291.38,255.56,286.82,250.8 M300.48,250.8h16.79l18.5,8.68
		c-3.83,2.94-7.8,5.64-11.86,8.09C314.98,261.19,305.56,254.45,300.48,250.8 M323.67,250.8h22.36c-2.29,2.26-7.65,6.64-7.85,6.79
		C332.75,255.05,327.45,252.57,323.67,250.8 M351.56,241.87l2.71,0.55c-0.89,0.96-1.78,1.93-2.71,2.89V241.87z M351.56,239.11v-4.3
		l8.26,1.12c-1.1,1.37-2.26,2.76-3.48,4.16C354.21,239.64,352.55,239.3,351.56,239.11 M351.56,232.08v-3.71l13.37,0.89
		c-0.99,1.36-2.04,2.77-3.15,4.19L351.56,232.08z M351.56,225.54v-3.55h18.32c-0.94,1.46-1.98,2.98-3.05,4.57L351.56,225.54z
		 M218.23,207.58c4.34,0,7.8,1.27,10.3,3.76c1.81,1.8,3.06,4.18,3.71,7.09c0,0,0.13,0.51,0.3,0.86h-92.07
		c-1.42-2.31-3.73-6.49-3.73-6.49c-0.11-0.21-1.67-3-4.62-5.22H218.23z M35.33,219.28c-2.37-0.17-2.88-0.46-3.64-1.68
		c0.02,0-3.1-5.18-3.35-5.58c-0.51-0.95-0.69-1.66-0.66-2.16c0.06-1.26,0.92-2.24,3.19-2.28h93.43c6.32,0,10.06,6.5,10.06,6.5
		c0.81,1.53,1.79,3.28,2.96,5.21H35.33z M48,232.52c-2.39-0.81-3.15-2.25-3.63-3.18c-1.44-2.48-3.36-6.18-4.31-7.35h98.88
		c0.95,1.51,2,3.12,3.13,4.78l-86.75,5.76C53.94,232.69,49.98,233.02,48,232.52 M64.03,245.01c-3.16,0.43-4.14-0.61-4.36-0.86
		l-4.15-7.32c-0.27-0.54-0.6-1.01-0.95-1.41c0.53-0.05,89.36-5.96,89.36-5.96c0.99,1.44,2.07,2.91,3.21,4.4L64.03,245.01z
		 M84.17,253c-8.61-2.53-15.6-4.58-18.59-5.46l83.48-11.2c1.14,1.44,2.33,2.9,3.57,4.36l-57.12,11.74
		C93.42,252.89,87.31,253.82,84.17,253 M112.5,261.31c-6.39-1.87-13.11-3.84-19.45-5.7c1.69-0.24,2.91-0.49,3.01-0.51
		c0,0,41.4-8.51,58.63-12.05c1.7,1.92,3.5,3.84,5.39,5.75l-38.27,11.82C121.71,260.64,116.49,262.38,112.5,261.31 M142.34,270.07
		c-0.83-0.23-9.93-2.9-21.63-6.35c1.12-0.26,1.85-0.51,1.95-0.53c-0.03,0.02,32.1-9.91,39.6-12.21c2.75,2.66,5.68,5.31,8.84,7.88
		l-20.7,9.69C149.05,269.24,145.04,270.8,142.34,270.07 M158.91,285.11c-8.09-3.04-9.32-6.09-10.46-9.03
		c-0.09-0.27-0.69-1.84-2.01-3.36c2.73-0.51,5.01-1.66,5.16-1.73c-0.03,0.02,10.95-5.13,21.86-10.23c3.96,3.1,8.04,5.95,12.23,8.54
		l-19.34,13.83C166.28,283.19,162.26,286.17,158.91,285.11 M182.13,291.7l-17.15-4.69c1.71-0.73,2.87-1.61,2.98-1.69
		c-0.02,0.01,9.57-6.85,20.27-14.52c3.88,2.28,7.83,4.33,11.88,6.17l-11.28,11.73C187.85,289.75,184.69,292.3,182.13,291.7
		 M205.92,298.18l-18.46-5.02c1.92-1.1,3.24-2.47,3.35-2.57c0,0,5.28-5.5,11.95-12.45c4.76,2.03,9.63,3.77,14.64,5.2l-6.1,10.32
		C210.54,294.99,208.05,298.53,205.92,298.18 M232.99,298.54c0,0.03-0.74,3.33-3.05,4.73c-1.06,0.64-2.26,0.79-3.7,0.45l-16.13-4.4
		c1.97-1.6,3.29-3.9,3.54-4.33c0,0.02,2.72-4.62,6.45-10.91c5.22,1.38,10.55,2.44,16.01,3.19L232.99,298.54z M237.07,301.87
		c-1.22,1.18-2.61,1.86-3.95,2.21c1.78-2.01,2.42-4.54,2.51-4.92l3.19-11.52c4.02,0.47,8.08,0.77,12.21,0.91
		C247.73,291.7,237.07,301.87,237.07,301.87 M239.57,284.98l9.48-34.18h5.61v35.1C249.52,285.85,244.5,285.55,239.57,284.98
		 M257.36,285.9v-35.1h5.6l9.49,34.18C267.52,285.55,262.48,285.85,257.36,285.9 M272.59,299.63c0,0-8.67-8.29-11.62-11.09
		c4.13-0.14,8.21-0.43,12.21-0.92l3.2,11.53c0.09,0.39,0.73,2.92,2.5,4.92C276.44,303.38,275.69,302.67,272.59,299.63
		 M285.76,303.73c-1.44,0.34-2.65,0.18-3.7-0.45c-2.25-1.37-2.99-4.52-3.04-4.72l-3.12-11.28c5.46-0.75,10.8-1.81,16.01-3.19
		l6.47,10.95c0.23,0.41,1.54,2.69,3.5,4.29L285.76,303.73z M306.09,298.18c-2.14,0.35-4.62-3.18-5.34-4.48l-6.12-10.37
		c5.01-1.44,9.87-3.17,14.63-5.19l11.93,12.45c0.12,0.1,1.43,1.47,3.35,2.57L306.09,298.18z M332.94,290.86l-3.06,0.84
		c-2.57,0.6-5.71-1.95-6.7-2.99c0,0-4.93-5.13-11.27-11.73c4.05-1.84,8.01-3.89,11.89-6.15l20.29,14.53
		c0.09,0.06,1.24,0.94,2.95,1.66C342.53,288.24,332.94,290.86,332.94,290.86 M363.57,276.06c-1.14,2.96-2.35,6-10.49,9.08
		c-3.34,1.03-7.36-1.94-7.38-1.98c-0.02,0-9.06-6.49-19.38-13.86c4.19-2.59,8.28-5.43,12.25-8.54l21.9,10.25
		c0.14,0.06,2.39,1.2,5.13,1.71C364.28,274.21,363.67,275.76,363.57,276.06 M369.69,270.07c-2.72,0.73-6.7-0.83-8.04-1.5
		c0,0-10.24-4.78-20.73-9.69c3.14-2.59,6.09-5.24,8.85-7.9l39.64,12.23c0.09,0.03,0.8,0.26,1.9,0.53L369.69,270.07z M399.56,261.31
		c-4.02,1.07-9.25-0.67-9.33-0.7l-0.05-0.01h-0.01l-38.24-11.81c1.9-1.91,3.7-3.83,5.4-5.75l58.6,12.05
		c0.13,0.02,1.35,0.27,3.03,0.51L399.56,261.31z M427.86,252.99c-3.12,0.84-9.24-0.1-11.36-0.55c-0.03,0-39.1-8.03-57.13-11.74
		c1.26-1.46,2.45-2.92,3.58-4.36l83.48,11.2L427.86,252.99z M456.46,236.87c0.03-0.03-3.42,6.01-4.14,7.27
		c-0.17,0.23-1.15,1.3-4.33,0.87l-83.11-11.15c1.15-1.49,2.22-2.96,3.22-4.4l88.31,5.87c0.12,0.01,0.49,0.05,1.03,0.09
		C457.08,235.85,456.75,236.31,456.46,236.87 M471.19,223.1l-3.55,6.24c-0.5,0.92-1.24,2.35-3.61,3.18
		c-1.98,0.5-5.95,0.18-7.32,0.02l-86.73-5.76c1.12-1.66,2.15-3.27,3.11-4.78h98.87C471.69,222.32,471.45,222.68,471.19,223.1
		 M483.67,212.01c-0.05,0.08-3.36,5.58-3.36,5.58c-0.62,1.03-1.03,1.51-3.61,1.68H374.73c1.14-1.92,2.11-3.67,2.95-5.21
		c0.02-0.06,3.63-6.5,10.04-6.5h93.43c0.98,0.04,2.26,0.15,2.92,1.26c0.09,0.15,0.26,0.46,0.26,1.02
		C484.33,210.36,484.18,211.06,483.67,212.01"/>
</g>
<text transform="matrix(0.857 0 0 1 197.4956 240.6133)" class="st2 st3 st4">Frank’s Shop Car</text>
<rect x="252.42" y="231.09" class="st5" width="60.65" height="7.88"/>
</svg>
