<?xml version="1.0" encoding="utf-8"?>
<!-- Generator: Adobe Illustrator 24.1.3, SVG Export Plug-In . SVG Version: 6.00 Build 0)  -->
<svg version="1.1" id="Layer_1" xmlns="http://www.w3.org/2000/svg" xmlns:xlink="http://www.w3.org/1999/xlink" x="0px" y="0px"
	 viewBox="0 0 360 150" style="enable-background:new 0 0 360 150;" xml:space="preserve">
<style type="text/css">
	.st0{fill:#EF4237;}
	.st1{font-family:'Optima-BoldItalic';}
	.st2{font-size:24.3934px;}
	.st3{fill:none;}
</style>
<g id="XMLID_2_">
	<polygon id="XMLID_101_" class="st0" points="39.83,46.72 39.83,46.73 39.83,46.71 	"/>
	<polygon id="XMLID_100_" class="st0" points="39.83,46.77 39.83,46.79 39.83,46.76 	"/>
	<path id="XMLID_22_" class="st0" d="M349.48,19.14c-1.14-3.14-3.16-3.36-4.06-3.43H215.25c-3.69,0-6.68,1.87-8.87,5.55
		c-1.58,2.65-2.67,6.08-3.23,10.2c-0.03,0.15-0.19,0.98-1.29,0.98h-25.73c-1.11,0-1.27-0.86-1.28-0.96
		c-0.56-4.14-1.64-7.57-3.22-10.22c-2.2-3.67-5.19-5.55-8.87-5.55H32.57c-0.83,0.04-2.91,0.29-4.04,3.43
		c-0.54,1.52-0.94,4.1,0.23,7.71c0,0.03,2.37,6.64,2.37,6.64c0.98,2.65,2.09,3.64,4.42,3.89c0.04,0.01,1.12,0.19,1.89,2.41
		l2.42,7.14c0.51,1.63,1.72,5.47,5.83,6.39c0.06,0.02,1.27,0.24,1.94,2.33c0,0.03,2.99,8.83,2.99,8.83c0.87,2.82,2.1,3.88,4.32,5.03
		c0.01,0,54.45,26.73,54.45,26.73c1.86,0.9,2.61,4.4,2.61,4.4c1.3,5.62,2.99,10.24,11.49,14.53c0.01,0,44.54,20.32,44.54,20.32
		c0.56,0.31,5.67,2.9,9.5-3.31l10.45-16.67c-0.01,0,0.43-0.73,1.02-0.73c0.58,0,1.02,0.73,1.02,0.73
		c0.03,0.06,10.45,16.67,10.45,16.67c3.84,6.2,8.95,3.61,9.5,3.3c-0.02,0,44.51-20.31,44.53-20.32c8.5-4.29,10.25-8.99,11.49-14.53
		c0.05-0.23,0.78-3.51,2.61-4.39c0,0,8.23-4.06,54.43-26.73c2.24-1.16,3.47-2.21,4.34-5.04l2.98-8.75c0.66-2.15,1.85-2.4,1.91-2.4
		c4.15-0.94,5.36-4.78,5.89-6.41l2.42-7.14c0.75-2.21,1.83-2.4,1.88-2.41c2.33-0.25,3.44-1.24,4.42-3.89
		c-0.02,0.01,2.38-6.64,2.38-6.64c0.51-1.55,0.75-3.05,0.75-4.45C350,21.23,349.83,20.13,349.48,19.14 M205.51,32.36
		c0.46-3.38,1.33-6.14,2.58-8.23c1.73-2.9,4.13-4.37,7.16-4.37h59.8c-2.06,2.57-3.14,5.82-3.2,6.06c-0.7,2.15-1.56,4.71-2.59,7.54
		H205.3C205.44,32.97,205.51,32.36,205.51,32.36 M124.54,66.82c-0.01-0.02-0.03-0.04-0.04-0.05V36.5h128.99l0,30.28
		c0,0.01,0,0.02,0,0.02L124.54,66.82z M122.61,40.63l-10.57,1.18c-0.76-1.84-1.45-3.61-2.11-5.3h12.68V40.63z M122.61,43.91v4.31
		l-7.08,1.59c-0.77-1.65-1.49-3.29-2.17-4.87L122.61,43.91z M122.61,51.38v5l-3.29,1.14c-0.85-1.62-1.65-3.24-2.43-4.83
		L122.61,51.38z M122.61,59.61v3.95c-0.62-1.11-1.24-2.21-1.85-3.33C121.52,59.98,122.14,59.76,122.61,59.61 M146.45,69.96h11.65
		l-16.27,19.48c-2.83-2.85-5.57-5.99-8.25-9.4C139.7,75.25,145.36,70.81,146.45,69.96 M131.93,77.85c-0.15-0.21-3.87-5.42-5.44-7.89
		H142L131.93,77.85z M161.35,69.96h6.26l-16.04,27.97c-2.7-2.02-5.35-4.27-7.95-6.74C151.31,81.99,159.33,72.37,161.35,69.96
		 M170.23,69.96h5.3l-12.35,34.97c-3.34-1.57-6.58-3.47-9.76-5.67C160.15,87.51,168.26,73.37,170.23,69.96 M177.72,69.96h4.5
		l-6.51,39.29c-3.64-0.81-7.19-1.96-10.65-3.46C169.79,92.39,176.13,74.46,177.72,69.96 M200.28,69.96l12.66,35.83
		c-3.46,1.5-7.01,2.65-10.63,3.46l-6.52-39.29H200.28z M202.48,69.96h5.32l16.8,29.3c-3.17,2.21-6.43,4.09-9.76,5.67L202.48,69.96z
		 M210.4,69.96h6.25l17.74,21.23c-2.58,2.49-5.24,4.73-7.95,6.76C220.61,87.74,213.57,75.49,210.4,69.96 M219.9,69.96h11.66
		l12.85,10.08c-2.66,3.41-5.42,6.55-8.24,9.4C229.97,82.02,223.42,74.19,219.9,69.96 M236,69.96h15.53
		c-1.59,2.63-5.32,7.72-5.45,7.89C242.31,74.9,238.63,72.02,236,69.96 M255.37,59.59l1.88,0.64c-0.62,1.12-1.23,2.24-1.88,3.36
		V59.59z M255.37,56.38v-5l5.74,1.3c-0.77,1.59-1.57,3.21-2.42,4.83C257.21,57,256.06,56.61,255.37,56.38 M255.37,48.22v-4.31
		l9.29,1.03c-0.69,1.58-1.41,3.22-2.19,4.87L255.37,48.22z M255.37,40.63V36.5h12.73c-0.65,1.69-1.37,3.46-2.12,5.3L255.37,40.63z
		 M162.76,19.76c3.01,0,5.42,1.47,7.15,4.37c1.26,2.09,2.13,4.85,2.58,8.23c0,0,0.09,0.59,0.21,0.99h-63.95
		c-0.98-2.68-2.59-7.54-2.59-7.54c-0.07-0.24-1.16-3.48-3.21-6.06H162.76z M35.73,33.36c-1.64-0.2-2-0.54-2.53-1.96
		c0.01,0-2.15-6.02-2.33-6.48c-0.35-1.11-0.48-1.92-0.46-2.51c0.04-1.47,0.64-2.61,2.22-2.64h64.89c4.39,0,6.98,7.55,6.98,7.55
		c0.56,1.78,1.24,3.81,2.05,6.05H35.73z M44.53,48.73c-1.66-0.94-2.18-2.62-2.52-3.69c-1-2.88-2.33-7.18-2.99-8.53h68.68
		c0.66,1.75,1.39,3.63,2.17,5.55l-60.26,6.69C48.66,48.93,45.91,49.31,44.53,48.73 M55.67,63.24c-2.19,0.5-2.88-0.71-3.02-1
		l-2.88-8.51c-0.19-0.63-0.41-1.17-0.66-1.63c0.37-0.05,62.06-6.92,62.06-6.92c0.69,1.67,1.44,3.38,2.23,5.11L55.67,63.24z
		 M69.66,72.52c-5.98-2.94-10.84-5.32-12.91-6.34l57.98-13c0.79,1.67,1.62,3.36,2.48,5.06L77.54,71.86
		C76.08,72.39,71.84,73.47,69.66,72.52 M89.33,82.17c-4.44-2.17-9.11-4.46-13.51-6.62c1.17-0.28,2.02-0.57,2.09-0.59
		c0,0,28.75-9.88,40.72-13.99c1.18,2.23,2.43,4.46,3.74,6.67L95.79,81.36C95.73,81.39,92.11,83.41,89.33,82.17 M110.06,92.34
		c-0.57-0.27-6.9-3.37-15.02-7.37c0.78-0.3,1.29-0.59,1.35-0.62c-0.02,0.02,22.29-11.51,27.5-14.18c1.91,3.09,3.95,6.17,6.14,9.16
		l-14.37,11.25C114.72,91.38,111.93,93.19,110.06,92.34 M121.56,109.81c-5.62-3.53-6.47-7.08-7.27-10.49
		c-0.06-0.32-0.48-2.14-1.39-3.9c1.89-0.59,3.48-1.92,3.58-2.01c-0.02,0.02,7.6-5.96,15.18-11.88c2.75,3.6,5.59,6.91,8.49,9.92
		l-13.43,16.06C126.68,107.58,123.89,111.04,121.56,109.81 M137.69,117.46l-11.91-5.45c1.19-0.85,1.99-1.87,2.07-1.96
		c-0.01,0.01,6.65-7.96,14.08-16.86c2.7,2.64,5.44,5.03,8.25,7.16l-7.83,13.63C141.66,115.19,139.47,118.15,137.69,117.46
		 M154.22,124.98l-12.82-5.83c1.34-1.27,2.25-2.87,2.33-2.98c0,0,3.67-6.39,8.3-14.46c3.3,2.35,6.69,4.37,10.17,6.04l-4.24,11.99
		C157.43,121.29,155.7,125.39,154.22,124.98 M173.02,125.4c0,0.04-0.51,3.87-2.12,5.5c-0.74,0.75-1.57,0.92-2.57,0.53l-11.2-5.11
		c1.37-1.86,2.28-4.53,2.46-5.03c0,0.03,1.89-5.37,4.48-12.67c3.62,1.6,7.33,2.84,11.12,3.71L173.02,125.4z M175.85,129.27
		c-0.85,1.37-1.81,2.16-2.74,2.56c1.24-2.33,1.68-5.27,1.74-5.72l2.22-13.38c2.79,0.55,5.61,0.9,8.48,1.06
		C183.26,117.46,175.85,129.27,175.85,129.27 M177.59,109.66l6.58-39.69h3.9v40.77C184.5,110.67,181.01,110.31,177.59,109.66
		 M189.95,110.73V69.96h3.89l6.59,39.69C197,110.31,193.5,110.67,189.95,110.73 M200.52,126.67c0,0-6.02-9.62-8.07-12.88
		c2.87-0.16,5.7-0.5,8.48-1.07l2.22,13.39c0.06,0.46,0.51,3.4,1.74,5.72C203.2,131.03,202.67,130.2,200.52,126.67 M209.67,131.43
		c-1,0.39-1.84,0.21-2.57-0.53c-1.56-1.59-2.08-5.25-2.11-5.48l-2.17-13.1c3.79-0.87,7.5-2.11,11.12-3.71l4.5,12.72
		c0.16,0.47,1.07,3.12,2.43,4.98L209.67,131.43z M223.79,124.98c-1.48,0.41-3.21-3.69-3.71-5.2l-4.25-12.04
		c3.48-1.68,6.86-3.68,10.16-6.03l8.29,14.46c0.08,0.11,0.99,1.71,2.33,2.98L223.79,124.98z M242.44,116.49l-2.12,0.97
		c-1.78,0.69-3.96-2.26-4.66-3.48c0,0-3.43-5.96-7.83-13.63c2.81-2.13,5.57-4.52,8.25-7.14l14.09,16.88
		c0.06,0.07,0.86,1.09,2.05,1.93C249.1,113.45,242.44,116.49,242.44,116.49 M263.71,99.29c-0.79,3.44-1.63,6.97-7.29,10.54
		c-2.32,1.2-5.11-2.26-5.12-2.3c-0.02,0-6.29-7.54-13.46-16.09c2.91-3.01,5.75-6.31,8.51-9.92l15.21,11.9
		c0.09,0.07,1.66,1.4,3.56,1.99C264.21,97.15,263.78,98.95,263.71,99.29 M267.96,92.34c-1.89,0.85-4.65-0.96-5.58-1.74
		c0,0-7.11-5.55-14.4-11.26c2.18-3.01,4.23-6.08,6.15-9.18l27.53,14.2c0.06,0.03,0.55,0.3,1.32,0.61L267.96,92.34z M288.71,82.17
		c-2.8,1.24-6.43-0.78-6.48-0.81l-0.03-0.01h-0.01l-26.56-13.72c1.32-2.21,2.57-4.45,3.75-6.67l40.7,13.99
		c0.09,0.02,0.93,0.31,2.1,0.59L288.71,82.17z M308.37,72.51c-2.17,0.97-6.41-0.11-7.89-0.64c-0.02,0-27.16-9.33-39.68-13.63
		c0.87-1.69,1.7-3.39,2.48-5.06l57.98,13L308.37,72.51z M328.23,53.78c0.02-0.04-2.38,6.98-2.88,8.44c-0.12,0.27-0.8,1.51-3.01,1.01
		l-57.72-12.95c0.8-1.73,1.54-3.44,2.24-5.11L328.2,52c0.08,0.01,0.34,0.05,0.72,0.1C328.66,52.59,328.43,53.13,328.23,53.78
		 M338.46,37.79l-2.47,7.25c-0.34,1.07-0.86,2.73-2.51,3.69c-1.38,0.58-4.13,0.21-5.09,0.02l-60.24-6.69
		c0.78-1.92,1.49-3.8,2.16-5.55h68.67C338.8,36.88,338.64,37.3,338.46,37.79 M347.13,24.92c-0.03,0.09-2.33,6.48-2.33,6.48
		c-0.43,1.2-0.71,1.75-2.51,1.96h-70.83c0.79-2.23,1.46-4.27,2.05-6.05c0.02-0.07,2.52-7.55,6.98-7.55h64.89
		c0.68,0.04,1.57,0.17,2.03,1.46c0.06,0.17,0.18,0.53,0.18,1.19C347.59,22.99,347.48,23.81,347.13,24.92"/>
</g>
<text transform="matrix(0.6427 0 0 1 130.0298 60.1309)" class="st0 st1 st2">Frank’s Shop Car</text>
<rect x="248.66" y="75.85" class="st3" width="42.12" height="9.15"/>
</svg>
